<?xml version="1.0" standalone="no"?><!DOCTYPE svg PUBLIC "-//W3C//DTD SVG 1.1//EN" "http://www.w3.org/Graphics/SVG/1.1/DTD/svg11.dtd"><svg t="1696673708321" class="icon" viewBox="0 0 1024 1024" version="1.1" xmlns="http://www.w3.org/2000/svg" p-id="26435" xmlns:xlink="http://www.w3.org/1999/xlink" width="32" height="32"><path d="M1024 512A512 512 0 1 1 0 512a512 512 0 0 1 1024 0z" fill="#3D7FFF" p-id="26436"></path><path d="M279.665778 611.612444v66.389334a66.389333 66.389333 0 0 0 61.44 66.218666l4.949333 0.170667h99.555556v66.332445h-99.555556a132.721778 132.721778 0 0 1-132.778667-132.721778v-66.389334h66.389334z m431.388444-165.888l146.033778 364.999112h-71.509333l-39.822223-99.555556h-135.736888l-39.822223 99.555556H498.744889l145.976889-364.999112h66.332444z m-33.166222 95.744l-41.358222 103.367112h82.659555l-41.301333-103.367112z m-298.666667-361.244444v66.389333h132.721778v232.277334H379.221333v99.555555H312.832v-99.555555H180.110222V246.613333h132.721778V180.224h66.389333z m298.666667 33.166222a132.721778 132.721778 0 0 1 132.721778 132.778667V412.444444h-66.332445V346.168889a66.389333 66.389333 0 0 0-66.389333-66.389333h-99.555556V213.390222h99.555556z m-365.056 99.555556H246.499556v99.555555h66.332444v-99.555555z m132.778667 0H379.221333v99.555555h66.389334v-99.555555z" fill="#FFFFFF" p-id="26437"></path></svg>